<svg height="410pt" viewBox="0 -2 410 410" width="410pt" xmlns="http://www.w3.org/2000/svg"><path d="m360 0h-310c-27.601562.03125-49.96875 22.398438-50 50v226.507812c.03125 27.601563 22.398438 49.96875 50 50h144.300781l94.386719 76.753907c2.992188 2.433593 7.121094 2.929687 10.609375 1.273437 3.484375-1.65625 5.703125-5.175781 5.703125-9.035156v-68.992188h55c27.601562-.03125 49.96875-22.398437 50-50v-226.507812c-.03125-27.601562-22.398438-49.96875-50-50zm30 276.507812c-.019531 16.558594-13.4375 29.980469-30 30h-65c-5.523438 0-10 4.476563-10 10v57.972657l-80.835938-65.730469c-1.78125-1.449219-4.007812-2.242188-6.308593-2.242188h-147.855469c-16.5625-.015624-29.980469-13.4375-30-30v-226.507812c.019531-16.5625 13.4375-29.980469 30-30h310c16.5625.019531 29.980469 13.4375 30 30zm0 0"/><path d="m70.980469 100.980469h115.285156c5.523437 0 10-4.476563 10-10 0-5.519531-4.476563-10-10-10h-115.285156c-5.519531 0-10 4.480469-10 10 0 5.523437 4.480469 10 10 10zm0 0"/><path d="m339.019531 153.25h-268.039062c-5.519531 0-10 4.476562-10 10s4.480469 10 10 10h268.035156c5.523437 0 10-4.476562 10-10s-4.476563-10-10-10zm0 0"/><path d="m339.019531 225.523438h-268.039062c-5.519531 0-10 4.476562-10 10 0 5.523437 4.480469 10 10 10h268.035156c5.523437 0 10-4.476563 10-10 0-5.523438-4.476563-10-10-10zm0 0"/></svg>